# xmcd
#
# Track frame offsets:
#	150
#	13412
#	23485
#	38226
#	53489
#	68158
#	81154
#	91054
#	100598
#	114362
#
# Disc length: 1686 seconds
#
# Revision: 0
# Processed by: cddbd v1.5.2PL0 Copyright (c) Steve Scherf et al.
# Submitted via: EasyCDDAExtractor 15.3.0.1
#
DISCID=6b06940a
DTITLE=Bobby Bare and Skeeter Davis - Your Husband My Wife
DYEAR=1970
DGENRE=Country
TTITLE0=Your Husband  My Wife
TTITLE1=Before The Sunrise
TTITLE2=I Got You
TTITLE3=I'm So Afraid Of Losing You Again
TTITLE4=Dream Baby
TTITLE5=My Elusive Dreams
TTITLE6=Lets Make Love Not War
TTITLE7=A Truer Love You'll Never Find
TTITLE8=Jackson
TTITLE9=There Never Was A Time We Didn't Love
EXTD=
EXTT0=
EXTT1=
EXTT2=
EXTT3=
EXTT4=
EXTT5=
EXTT6=
EXTT7=
EXTT8=
EXTT9=
PLAYORDER=
